<svg viewBox="0 0 52.69 47.69" xmlns="http://www.w3.org/2000/svg"><g fill="none" stroke="#000" stroke-linecap="round" stroke-linejoin="round"><path d="m49.31 20.62a23.34 23.34 0 0 0 -45.31-4.05 23.61 23.61 0 0 0 -1.17 7.27"/><path d="m9.51 40.17a23.35 23.35 0 0 0 32.79.57"/><path d="m6.34 36.28h33"/><path d="m35.85 29.82-9.73-18.13-5.74 10.31 4.17 8c-2.48-4.73-7.43-13-7.43-13l-5.73 10.23"/><path d="m13.31 30.04-4.26-6.24-8.55 12.48h17.07"/><path d="m31.4 21.54 4.18-5.64 8.44 14.14"/><path d="m42.19 26.97 2.45-3.61 7.55 12.93-13.6-.04"/></g></svg>