<svg viewBox="0 0 47.69 47.69" xmlns="http://www.w3.org/2000/svg"><g transform="translate(-24.8 -26.87)"><path d="m49.16 34.71a2.3 2.3 0 0 0 -.7 1.06 2.49 2.49 0 0 1 .89-.74c0 .84.89 1.6 1.34 1.93-.09-.21-.16-.35-.16-.35a3.57 3.57 0 0 1 .41.52h.19a4.47 4.47 0 0 0 -.32-.4c.16.15.31.29.44.43l.43.11-.13-.17.27.21a6.72 6.72 0 0 1 3.41 2.07c2.13 2.4 1 6.25.7 7.23h.13c.75 0 .1 2.31.1 2.31a1.67 1.67 0 0 1 -.61 1.2c-.5 3.54-3.69 7.61-7 7.61-2.92 0-6.13-3.87-6.58-7.61a1.64 1.64 0 0 1 -.62-1.2s-.64-2.3.1-2.3a.56.56 0 0 1 .26.07c-.8-4.21-.2-5.65-.2-5.65 1-3.17 4.56-4.7 4.56-4.7.39-.44.59-.58.68-.58s.08.14 0 .26a2.86 2.86 0 0 1 .43-.43 2.69 2.69 0 0 0 -.47.66l.39.19a2.63 2.63 0 0 1 .49-.6 2.45 2.45 0 0 0 -.41.64l.19.1a2.28 2.28 0 0 1 1.07-1.3 2.61 2.61 0 0 1 .71-.59m-1.15 1.66a2.25 2.25 0 0 1 .39-.9 2 2 0 0 0 -.51.85zm1.21-2.64a1 1 0 0 0 -.46.11 3.34 3.34 0 0 0 -.9.71l-.23.16a1 1 0 0 0 -1 .1 1.9 1.9 0 0 0 -1.19.74c-.83.41-3.88 2.08-4.9 5.2-.14.37-.54 1.83 0 5.26a1.07 1.07 0 0 0 -.14.16c-.43.56-.45 1.57-.06 3a2.84 2.84 0 0 0 .67 1.48c.63 3.84 3.95 8.12 7.52 8.12 3.8 0 7.26-4.21 8-8.11a2.88 2.88 0 0 0 .66-1.48c.39-1.41.38-2.41 0-3 .45-1.73.94-5.06-1.1-7.39a7.73 7.73 0 0 0 -3.71-2.34c-.06 0-.11-.09-.18-.13a1 1 0 0 0 -.52-.18l-.19-.12a1.08 1.08 0 0 0 -.34-.21 1 1 0 0 0 -.45-.19 1.09 1.09 0 0 1 -.34-.6 1 1 0 0 0 -.25-.66.91.91 0 0 0 -.11-.22 1 1 0 0 0 -.83-.44z"/><g fill="none" stroke="#000" stroke-linecap="round" stroke-linejoin="round"><path d="m69.3 61.58a22.49 22.49 0 0 0 1.52-3.58 23.34 23.34 0 1 0 -42.43 4.3"/><path d="m32.29 67.35c.14-.7.3-1.4.49-2.09a9.35 9.35 0 0 1 5.48-6c1.81-.64 4.87-1.87 5.15-3 0 0 4.48 11.6 10.38 0 0 0 0 1.06 3 2.12 0 0 .95.3 2.14.79l.26.09a8.64 8.64 0 0 1 5.23 6c.2.63.39 1.33.58 2.09"/><path d="m59.21 59.28-.21-.09c-1.19-.49-2.14-.79-2.14-.79-3-1.06-3-2.12-3-2.12-5.9 11.63-10.38 0-10.38 0-.28 1.1-3.34 2.33-5.15 3a9.35 9.35 0 0 0 -5.48 6c-.19.69-.35 1.39-.49 2.09a23.32 23.32 0 0 0 32.73 0c-.19-.76-.38-1.46-.58-2.09a8.64 8.64 0 0 0 -5.3-6z"/></g></g></svg>