<?xml version="1.0" encoding="UTF-8" standalone="no"?><!DOCTYPE svg PUBLIC "-//W3C//DTD SVG 1.1//EN" "http://www.w3.org/Graphics/SVG/1.1/DTD/svg11.dtd"><svg viewBox="0 0 48 49" version="1.1" xmlns="http://www.w3.org/2000/svg" xmlns:xlink="http://www.w3.org/1999/xlink" xml:space="preserve" xmlns:serif="http://www.serif.com/" style="fill-rule:evenodd;clip-rule:evenodd;stroke-linecap:round;stroke-linejoin:round;stroke-miterlimit:10;"><path d="M44.401,35.936c0.639,-1.19 1.183,-2.452 1.618,-3.78c1.764,-5.375 1.465,-10.936 -0.461,-15.822c-0.774,-1.96 -1.809,-3.813 -3.078,-5.501" style="fill:none;stroke:#000;stroke-width:1px;"/><path d="M5.199,10.833c-1.503,1.995 -2.709,4.266 -3.531,6.77c-2.38,7.253 -1.005,14.842 3.057,20.657" style="fill:none;stroke:#000;stroke-width:1px;"/><path d="M16.567,47.055c5.153,1.691 10.475,1.487 15.211,-0.23" style="fill:none;stroke:#000;stroke-width:1px;"/><path d="M42.972,38.26c0.517,-0.74 0.995,-1.516 1.429,-2.324" style="fill:none;stroke:#000;stroke-width:1px;"/><path d="M38.4,7.165c-0,-1.768 -0.703,-3.463 -1.952,-4.713c-1.25,-1.25 -2.945,-1.952 -4.713,-1.952c-4.73,-0 -11.053,-0 -15.783,-0c-1.768,0 -3.463,0.702 -4.713,1.952c-1.249,1.25 -1.952,2.945 -1.952,4.713c0,6.372 0,15.782 0,21.156c0,2.3 1.866,4.166 4.166,4.166l20.781,-0c2.3,-0 4.166,-1.866 4.166,-4.166l-0,-21.156Z" style="fill:none;stroke:#000;stroke-width:1px;stroke-miterlimit:1.5;"/><path d="M33.962,7.213c-0,-1.381 -1.12,-2.501 -2.501,-2.501l-15.033,0c-1.381,0 -2.501,1.12 -2.501,2.501l0,4.796c0,1.382 1.12,2.501 2.501,2.501l15.033,0c1.381,0 2.501,-1.119 2.501,-2.501l-0,-4.796Z" style="fill:none;stroke:#000;stroke-width:1px;stroke-miterlimit:1.5;"/><path d="M23.945,4.712l-0,9.798" style="fill:none;stroke:#000;stroke-width:1px;stroke-miterlimit:1.5;"/><circle cx="16.588" cy="23.715" r="2.66" style="fill:none;stroke:#000;stroke-width:1px;stroke-miterlimit:1.5;"/><circle cx="30.845" cy="23.715" r="2.66" style="fill:none;stroke:#000;stroke-width:1px;stroke-miterlimit:1.5;"/><path d="M16.588,32.487l-9.6,11.547" style="fill:none;stroke:#000;stroke-width:1px;stroke-miterlimit:1.5;"/><path d="M30.845,32.487l9.6,11.547" style="fill:none;stroke:#000;stroke-width:1px;stroke-miterlimit:1.5;"/><path d="M9.287,35.86l29.113,0" style="fill:none;stroke:#000;stroke-width:1px;stroke-miterlimit:1.5;"/><path d="M7.847,39.834l32.233,0" style="fill:none;stroke:#000;stroke-width:1px;stroke-miterlimit:1.5;"/><path d="M5.447,44.154l37.033,0" style="fill:none;stroke:#000;stroke-width:1px;stroke-miterlimit:1.5;"/></svg>