<svg xmlns="http://www.w3.org/2000/svg" viewBox="0 0 51.43 51.42"><g data-name="Layer 2"><g data-name="Layer 6"><path d="M27.25 49.31a.5.5 0 0 1-.05-1 22.86 22.86 0 0 0 20.89-21 .5.5 0 0 1 1 .08A24.15 24.15 0 0 1 48 33a23.79 23.79 0 0 1-20.71 16.31zM2 26.05a.5.5 0 0 1-.5-.5A23.9 23.9 0 0 1 22.61 1.86a.5.5 0 0 1 .11 1A22.9 22.9 0 0 0 2.47 25.55a.5.5 0 0 1-.47.5zm19.27 18.28a2 2 0 0 1-1.43-.59L7.68 31.58a2 2 0 0 1 0-2.86L26.21 10.2a2 2 0 0 1 2.85 0l12.16 12.16a2 2 0 0 1 0 2.85L22.7 43.74a2 2 0 0 1-1.43.59zm6.36-33.73a1 1 0 0 0-.72.3L8.39 29.43a1 1 0 0 0 0 1.44L20.55 43A1 1 0 0 0 22 43l18.52-18.5a1 1 0 0 0 .29-.72 1 1 0 0 0-.29-.72L28.35 10.9a1 1 0 0 0-.72-.3z"/><path d="M16 51.42l-5.5-5.51.24-.35s1.68-2.4.27-3.81l-1.34-1.34c-1.41-1.42-3.79.25-3.81.26l-.35.25L0 35.4l.4-.35a3.84 3.84 0 0 0 1.31-2.14 1 1 0 0 0-.33-.79L1.24 32A1.87 1.87 0 0 1 1 29.32L29.32 1a1.66 1.66 0 0 1 1.31-.44 2.07 2.07 0 0 1 1.29.6l.21.22a1 1 0 0 0 .79.33A3.89 3.89 0 0 0 35.07.4l.35-.4 5.51 5.51-.24.35s-1.69 2.4-.27 3.81L41.77 11c1.41 1.41 3.78-.25 3.8-.27l.35-.24L51.43 16l-.4.36a3.76 3.76 0 0 0-1.3 2.14 1 1 0 0 0 .32.79l.14.14a1.87 1.87 0 0 1 .21 2.65L22.1 50.39a1.62 1.62 0 0 1-1.3.46 2 2 0 0 1-1.29-.6L19.3 50a1 1 0 0 0-.79-.33A3.84 3.84 0 0 0 16.37 51zm-4.22-5.64L16 50a4.27 4.27 0 0 1 2.49-1.27 2 2 0 0 1 1.53.62l.14.14a1.13 1.13 0 0 0 .72.39.65.65 0 0 0 .52-.18l28.3-28.29a.85.85 0 0 0-.14-1.18l-.2-.2a2 2 0 0 1-.62-1.53A4.27 4.27 0 0 1 50 16l-4.2-4.2c-.87.51-3.11 1.55-4.73-.07l-1.35-1.35c-1.62-1.61-.57-3.86-.06-4.73l-4.2-4.2A4.31 4.31 0 0 1 33 2.71a2 2 0 0 1-1.54-.63l-.21-.21a1.06 1.06 0 0 0-.66-.32.67.67 0 0 0-.52.18L1.74 30a.84.84 0 0 0 .14 1.18l.2.21a2 2 0 0 1 .63 1.53 4.27 4.27 0 0 1-1.27 2.49l4.2 4.2c.87-.51 3.12-1.55 4.73.07l1.35 1.35c1.62 1.63.58 3.88.07 4.75z"/><path d="M25 34.37a.5.5 0 0 1-.43-.25l-2.27-3.91-4.57.79a.51.51 0 0 1-.53-.26.5.5 0 0 1 .09-.58l3.19-3.34-1.87-4.14a.49.49 0 0 1 .09-.55.5.5 0 0 1 .55-.12l4.3 1.75 3.38-3.2a.54.54 0 0 1 .58-.08.5.5 0 0 1 .26.52l-.66 4.42 4.06 2.14a.5.5 0 0 1 .26.52.49.49 0 0 1-.4.41l-4.72.9-.83 4.61a.51.51 0 0 1-.41.4zm-2.44-5.2a.5.5 0 0 1 .43.24l1.76 3 .65-3.62a.51.51 0 0 1 .4-.4l3.66-.69-3.11-1.64a.52.52 0 0 1-.26-.52l.5-3.34L24 24.66a.48.48 0 0 1-.53.1L20 23.36l1.49 3.3a.5.5 0 0 1-.09.56l-2.4 2.5 3.42-.55zM29.4 5.69a.49.49 0 0 1-.35-.15l-1.77-1.77a.5.5 0 0 1 0-.7.5.5 0 0 1 .71 0l1.77 1.76a.51.51 0 0 1 0 .71.51.51 0 0 1-.36.15zm13.47 13.46a.51.51 0 0 1-.36-.15l-3.36-3.36a.5.5 0 0 1 0-.71.5.5 0 0 1 .7 0l3.37 3.37a.5.5 0 0 1-.35.85zm-6.74-6.73a.5.5 0 0 1-.35-.15l-3.37-3.36a.51.51 0 0 1 0-.71.5.5 0 0 1 .71 0l3.37 3.37a.5.5 0 0 1 0 .7.51.51 0 0 1-.36.15zM48 24.28a.46.46 0 0 1-.35-.14l-1.77-1.77a.5.5 0 0 1 0-.71.51.51 0 0 1 .71 0l1.76 1.77a.5.5 0 0 1 0 .71.46.46 0 0 1-.35.14z"/></g></g></svg>