<svg clip-rule="evenodd" fill-rule="evenodd" stroke-linecap="round" stroke-linejoin="round" stroke-miterlimit="10" viewBox="0 0 48 52" xmlns="http://www.w3.org/2000/svg"><g fill="none" stroke="#000"><path d="m30.387 48.41c7.128-2.09 13.143-7.539 15.632-15.124 4.016-12.239-2.66-25.436-14.899-29.452m-13.631-.28c-7.211 2.05-13.31 7.527-15.821 15.179-4.016 12.239 2.66 25.436 14.899 29.452"/><path d="m38.058 26.01c0-7.846-6.369-14.215-14.215-14.215-7.845 0-14.214 6.369-14.214 14.215 0 7.845 6.369 14.214 14.214 14.214 7.846 0 14.215-6.369 14.215-14.214z"/><path d="m38.058 26.01c0-4.134-6.369-7.489-14.215-7.489-7.845 0-14.214 3.355-14.214 7.489 0 4.133 6.369 7.489 14.214 7.489 7.846 0 14.215-3.356 14.215-7.489z"/><path d="m31.811 26.01c0-7.846-3.57-14.215-7.968-14.215-4.397 0-7.967 6.369-7.967 14.215 0 7.845 3.57 14.214 7.967 14.214 4.398 0 7.968-6.369 7.968-14.214z"/><path d="m9.629 26.01h28.429" stroke-miterlimit="1.5"/><path d="m23.843 11.795v28.429" stroke-miterlimit="1.5"/><path d="m18.464 3.008-5.453-2.508"/><path d="m18.462 3.291-2.769 5.047"/><path d="m30.337 48.481 5.507 2.387"/><path d="m30.333 48.197 2.657-5.106"/></g></svg>