<svg xmlns="http://www.w3.org/2000/svg" viewBox="0 0 47.69 47.69"><path d="M33.73 2.7a22.83 22.83 0 0 0-2.61-1 23.21 23.21 0 0 0-17.45 1.17m30.8 31.9a23.37 23.37 0 0 0 0-21.85M14.89 45.4c.54.22 1.11.43 1.68.62a23.21 23.21 0 0 0 15.77-.39M3.14 13.06a23.8 23.8 0 0 0-1.47 3.51 23.25 23.25 0 0 0 1.79 18.64" fill="none" stroke="#000" stroke-linecap="round" stroke-linejoin="round"/><rect x="11.63" y="27.32" width="24.43" height="11.74" rx="2.35" fill="none" stroke="#000" stroke-miterlimit="10"/><rect x="6.16" y="5.29" width="35.37" height="15.54" rx="4.38" fill="none" stroke="#000" stroke-miterlimit="10"/><rect x="6.16" y="5.29" width="35.37" height="37.28" rx="4.51" fill="none" stroke="#000" stroke-miterlimit="10"/><path d="M15.73 5.13h3v26.75a1.25 1.25 0 0 1-1.25 1.25H17a1.25 1.25 0 0 1-1.25-1.25V5.13h-.02zm13 0h3v26.75a1.25 1.25 0 0 1-1.25 1.25H30a1.25 1.25 0 0 1-1.25-1.25V5.13h-.02z" fill="none" stroke="#000" stroke-miterlimit="10"/></svg>