<svg clip-rule="evenodd" fill-rule="evenodd" stroke-linecap="round" stroke-linejoin="round" stroke-miterlimit="10" viewBox="0 0 49 49" xmlns="http://www.w3.org/2000/svg"><g fill="none" stroke="#000"><path d="m42.27 16.448c-4.298-2.645-10.681-4.322-17.801-4.322-6.49 0-12.368 1.394-16.612 3.643m.861 17.834c4.162 1.993 9.689 3.209 15.751 3.209 6.345 0 12.105-1.332 16.325-3.493"/><path d="m36.668 16.31c-1.645-9.589-6.288-15.269-12.199-15.269-5.505 0-10.224 6.058-12.174 14.639m-.183 16.725c1.824 9.03 6.671 15.492 12.357 15.492 5.559 0 10.316-6.177 12.231-14.891"/><path d="m44.841 24.469h3.056m-46.856 0h3.056" stroke-miterlimit="1.5"/><path d="m24.469 33.775v14.122m0-46.856v13.344" stroke-miterlimit="1.5"/></g><path d="m7.265 19.261h2.108l3.21 8.645 3.209-8.645h2.109l-4.156 10.697h-2.317z" fill-rule="nonzero"/><path d="m20.834 29.958v-10.697h4.675c1.069 0 1.911.32 2.523.96.612.639.919 1.437.919 2.392 0 .945-.308 1.737-.923 2.376-.615.64-1.455.96-2.519.96h-2.814v4.009zm1.861-5.662h2.558c.527 0 .957-.155 1.291-.465.333-.311.5-.717.5-1.218 0-.512-.167-.923-.5-1.233-.334-.311-.764-.466-1.291-.466h-2.558z" fill-rule="nonzero"/><path d="m32.295 29.958v-10.697h1.907l5.419 7.408v-7.408h1.852v10.697h-1.79l-5.528-7.651v7.651z" fill-rule="nonzero"/><path d="m47.239 31.941c4.124-12.567-2.731-26.118-15.298-30.242-12.567-4.124-26.118 2.731-30.242 15.298-4.124 12.567 2.732 26.118 15.299 30.242s26.118-2.731 30.241-15.298z" fill="none" stroke="#000"/></svg>