<svg viewBox="0 0 47.67 49.4" xmlns="http://www.w3.org/2000/svg"><g fill="none" stroke="#000" stroke-miterlimit="10"><g transform="translate(-11.87 -12.67)"><path d="m35.71 13.17a23.35 23.35 0 0 0 -16.47 39.89" stroke-linecap="round"/><path d="m56.16 25.27a22.89 22.89 0 0 0 -2-3.07" stroke-linecap="round"/><path d="m34 59.8a23.35 23.35 0 0 0 25-22.28" stroke-linecap="round"/><path d="m56.31 29.05a2.76 2.76 0 0 0 -3.91 0l-4.33 4.33-6.45-4.38 1.74-2.7c0-.05 0-.1.07-.15a7 7 0 0 0 .92.07 6.5 6.5 0 1 0 -6.5-6.5 6.42 6.42 0 0 0 1 3.42c0 .06-.09.1-.13.16l-10.58 16.36a2.71 2.71 0 0 0 -.44 1.73l.58 6.76-5.45 9.25a2.77 2.77 0 1 0 4.77 2.81l5.9-10a2.78 2.78 0 0 0 .37-1.64l-.48-5.65 4.06 1a3.38 3.38 0 0 0 .63.07 2.64 2.64 0 0 1 2.61 2.26l-2.28 6.72a2.76 2.76 0 0 0 1.73 3.51 2.73 2.73 0 0 0 .89.15 2.77 2.77 0 0 0 2.62-1.88l2.46-7.23a3 3 0 0 0 .14-.89 8.18 8.18 0 0 0 -7.82-8.17l-2.52-.59 2.71-4.2 8.21 5.64a2.75 2.75 0 0 0 1.57.49 2.81 2.81 0 0 0 2-.81l6-6a2.76 2.76 0 0 0 -.09-3.94z"/></g><rect height="18.54" rx="4.2" transform="matrix(.84 .54 -.54 .84 8.35 -23.22)" width="10.89" x="22.82" y="20.25"/><path d="m10.75 44.42 5.52 2.58"/><path d="m26.54 40.24 5.55.89"/><path d="m38.64 18.28 3.81 4.01"/><path d="m9.95 16.85 8.89 5.74"/><path d="m12.33 13.1 6.51-.5 4.63 3.27"/><path d="m15.51 12.94-1.54 2.12" stroke-linecap="round"/><path d="m24.04 25.14h-6.58" stroke-linecap="round"/><path d="m25.98 11.9 3.77 4.38" stroke-linecap="round"/><path d="m37.85 19.67s4-2.65 6.1-2.22 6-1.09 6-1.09" stroke-linecap="round" transform="translate(-11.87 -12.67)"/></g></svg>