<svg viewBox="0 0 54.83 48.58" xmlns="http://www.w3.org/2000/svg"><g fill="none" stroke="#000" stroke-linecap="round" stroke-linejoin="round"><path d="m40.93 4.81a23.38 23.38 0 0 0 -25.93-.71"/><path d="m36.78 45.22a23.3 23.3 0 0 0 11.8-11.54"/><path d="m6 33.16a23.32 23.32 0 0 0 11.46 11.84"/><path d="m36 12.43a.68.68 0 0 0 -.16-.43s.1.16.16.43z"/><path d="m43.27 21.75c-4 1.78-4.33 6-7.88 8.09l-.1-4-1 .22a12.73 12.73 0 0 1 8.25-8.38 24.2 24.2 0 0 0 11.79-9.43 50.77 50.77 0 0 1 -10.26 6.38c2.2-6.09.06-13.22.06-13.22s.87 10.44-4.26 14.59a13.49 13.49 0 0 0 -3.87 1.51c.95-1.83.33-4.14 0-5.08.09.8-.31 3-4.11 8.39a11.92 11.92 0 0 0 -3.28 6.44l-1.26.27-1.26-.27c-.1-1.76-1.29-4.23-3.27-6.44-3.8-5.44-4.2-7.59-4.1-8.39-.33.94-.95 3.25 0 5.08a13.38 13.38 0 0 0 -3.72-1.51c-5.2-4.15-4.3-14.59-4.3-14.59s-2.15 7.13.06 13.22a50.43 50.43 0 0 1 -10.26-6.38 24.2 24.2 0 0 0 11.81 9.39 12.73 12.73 0 0 1 8.24 8.36l-1-.22-.1 4c-3.55-2.07-3.85-6.31-7.89-8.09s-10.26-.82-10.26-.82 2 8.28 8.87 9.56a18.36 18.36 0 0 1 10.55 6l1.12 7.81a4.49 4.49 0 0 0 4.38 3.83h2.38a4.48 4.48 0 0 0 4.4-3.82l1.12-7.81a18.36 18.36 0 0 1 10.55-6c6.9-1.28 8.88-9.56 8.88-9.56s-6.23-.88-10.28.87z"/><path d="m18.8 12.43c.09-.27.16-.43.16-.43a.68.68 0 0 0 -.16.43z"/></g></svg>