<svg xmlns="http://www.w3.org/2000/svg" viewBox="0 0 50.82 47.69"><path d="M47.42 16.08a23.34 23.34 0 0 0-44 0m3 21.33a23.35 23.35 0 0 0 37.85.2" fill="none" stroke="#000" stroke-linecap="round" stroke-linejoin="round"/><path fill="none" stroke="#000" stroke-miterlimit="10" d="M15.52 31.22L35.16 31.22"/><circle cx="39.71" cy="31.22" r="4.55" fill="none" stroke="#000" stroke-miterlimit="10"/><circle cx="10.97" cy="31.22" r="4.55" fill="none" stroke="#000" stroke-miterlimit="10"/><path d="M6.42 31.22h-5a1 1 0 0 1-.93-1.06v-5a4 4 0 0 1 3.75-4.35h4.54l6.66-7.6a3.11 3.11 0 0 1 2.35-1.11h16a3.18 3.18 0 0 1 2.49 1.28l5.81 7.49h4.47a4 4 0 0 1 3.74 4.28v5a1 1 0 0 1-.93 1.06h-5.11" fill="none" stroke="#000" stroke-miterlimit="10"/><path d="M6.42 20.81h15.72a1.17 1.17 0 0 0 1.17-1.17v-7.51m4.28 0v7.55a1.17 1.17 0 0 0 1.17 1.13l15.72.05" fill="none" stroke="#000" stroke-linecap="round" stroke-linejoin="round"/></svg>