<svg xmlns="http://www.w3.org/2000/svg" viewBox="0 0 57.78 47.69"><path d="M38.51 2.85a24.22 24.22 0 0 0-2.88-1.18 23.22 23.22 0 0 0-17.49 1.19m-3.51 39.9a23.36 23.36 0 0 0 27.49-.1" fill="none" stroke="#000" stroke-linecap="round" stroke-miterlimit="10"/><path fill="none" stroke="#000" stroke-miterlimit="10" d="M0.5 32.12H57.28V38.769999999999996H0.5z"/><path d="M3.08 38.78h6.21V44a1 1 0 0 1-1 1H4.1a1 1 0 0 1-1-1v-5.2zm45 0h6.21V44a1 1 0 0 1-1 1H49.1a1 1 0 0 1-1-1v-5.2l-.02-.02zM7.66 21.25h40.06a6.57 6.57 0 0 1 6.57 6.57v4.3H3.08v-6.3a4.57 4.57 0 0 1 4.58-4.57z" fill="none" stroke="#000" stroke-miterlimit="10"/><path d="M45.69 6.58l-35-.11a4.49 4.49 0 0 0-4.5 4.5v10.17l44 .11V11.1a4.5 4.5 0 0 0-4.5-4.52z" fill="none" stroke="#000" stroke-miterlimit="10"/><rect x="14.62" y="14.12" width="12.2" height="7.04" rx="1.33" fill="none" stroke="#000" stroke-miterlimit="10"/><rect x="29.99" y="14.12" width="12.2" height="7.04" rx="1.33" fill="none" stroke="#000" stroke-miterlimit="10"/></svg>