<svg viewBox="0 0 55.15 57.08" xmlns="http://www.w3.org/2000/svg"><g fill="none" stroke="#000" stroke-linecap="round" stroke-linejoin="round"><g transform="translate(-22.01 -21.57)"><path d="m53.92 27.17a23.17 23.17 0 0 0 -8-.12"/><path d="m72.9 51.24a23.67 23.67 0 0 0 -.16-4.13"/><path d="m45.3 73.05a23 23 0 0 0 7.75.14"/><path d="m26.44 47.11a21.32 21.32 0 0 0 -.19 3.47"/><path d="m53.3 66.16h-6.3c-2.83 0-3.32-1.48-3.32-3.31l-1.68-24.85a3.31 3.31 0 0 1 3.31-3.31h8.69a3.31 3.31 0 0 1 3.28 3.31l-1.66 24.85c0 1.83-1.48 3.31-2.32 3.31z"/></g><circle cx="27.48" cy="25.53" r="1.33"/><path d="m56.27 63.08 7.59 3.59a1.72 1.72 0 1 0 1-2l-8.63-5.41z" transform="translate(-22.01 -21.57)"/><path d="m52.16 32.27-7.76 7.35v2.85l1.23.82 1.22-.82 6.94-8.16z"/><path d="m34.77 56.58 7.75-7.35v-2.86l-1.22-.81-1.22.81-6.94 8.16z"/><path d="m42.9 63.08-7.59 3.59a1.72 1.72 0 1 1 -1-2l8.63-5.41z" transform="translate(-22.01 -21.57)"/><path d="m3 32.27 7.75 7.35v2.85l-1.22.82-1.23-.82-6.93-8.16z"/><path d="m20.39 56.58-7.76-7.35v-2.86l1.23-.81 1.22.81 6.94 8.16z"/><path d="m57.14 37.13 7.59-3.58a1.73 1.73 0 1 1 1.68 2.14 1.69 1.69 0 0 1 -.64-.12l-8.63 5.43z" transform="translate(-22.01 -21.57)"/><path d="m53.02 24.8-7.75-7.34v-2.86l1.22-.81 1.23.81 6.93 8.16z"/><path d="m35.64.5 7.75 7.35v2.85l-1.22.82-1.23-.82-6.94-8.16z"/><path d="m42 37.13-7.6-3.58a1.73 1.73 0 1 0 -1.68 2.14 1.69 1.69 0 0 0 .64-.12l8.64 5.43z" transform="translate(-22.01 -21.57)"/><path d="m2.13 24.8 7.76-7.34v-2.86l-1.23-.81-1.22.81-6.94 8.16z"/><path d="m19.52.5-7.76 7.35v2.85l1.23.82 1.22-.82 6.94-8.16z"/></g></svg>