<svg xmlns="http://www.w3.org/2000/svg" viewBox="0 0 44.16 47.69"><path d="M35.7 4.83a23.38 23.38 0 0 0-26.73-.24M8.4 42.71a23.39 23.39 0 0 0 26.74.53" fill="none" stroke="#000" stroke-linecap="round" stroke-linejoin="round"/><path d="M41.53 8.53s-6.48-2.15-19.42-2.15S2.68 8.53 2.68 8.53a54.17 54.17 0 0 0 0 30.22s6.45 2.15 19.4 2.15 19.45-2.15 19.45-2.15a53.93 53.93 0 0 0 0-30.22z" fill="none" stroke="#000" stroke-miterlimit="10"/><path d="M24.92 15.17l-5 6.43 3.63 5c-2.15-3-6.46-8.15-6.46-8.15l-9.36 12h28.63z" fill="none" stroke="#000" stroke-miterlimit="10"/></svg>