<svg viewBox="0 0 48.04 47.69" xmlns="http://www.w3.org/2000/svg"><g fill="none" stroke="#000"><path d="m51.3 14.19a23.34 23.34 0 0 0 -34.49 2.89" stroke-linecap="round" stroke-linejoin="round" transform="translate(-11.35 -7.4)"/><path d="m21.44 50a23.33 23.33 0 0 0 27.07.56" stroke-linecap="round" stroke-linejoin="round" transform="translate(-11.35 -7.4)"/><g stroke-miterlimit="10"><path d="m53.51 42h2.27a3.11 3.11 0 0 0 3.11-3.11v-13.05a7.35 7.35 0 0 0 -7.36-7.36h-24.92a14.75 14.75 0 0 0 -14.76 14.75v5.68a3.11 3.11 0 0 0 3.15 3.09h3.7" transform="translate(-11.35 -7.4)"/><path d="m16.42 34.62h16.63"/><circle cx="37.61" cy="34.62" r="4.55"/><circle cx="11.86" cy="34.62" r="4.55"/><path d="m11.85 31.35h10a2.92 2.92 0 0 0 2.92-2.92v-9.84" transform="translate(-11.35 -7.4)"/><rect height="8.42" rx="1.83" width="7.91" x="16.42" y="15.01"/><rect height="8.42" rx="1.83" width="7.91" x="26.45" y="15.01"/><rect height="8.42" rx="1.83" width="7.91" x="36.1" y="15.01"/></g></g></svg>