<svg xmlns="http://www.w3.org/2000/svg" viewBox="0 0 47.69 47.69"><g id="Layer_2" data-name="Layer 2"><g id="Layer_1-2" data-name="Layer 1"><path d="M38.24,19.09V12.15a3.53,3.53,0,0,0-3.39-3.64l-22.5-.07A3.52,3.52,0,0,0,9,12.08v7.08a5.09,5.09,0,0,0-3,4.65V39a1.52,1.52,0,0,0,1.52,1.52H9.94A1.52,1.52,0,0,0,11.46,39V35.06H36.21V39a1.52,1.52,0,0,0,1.52,1.52h2.53A1.52,1.52,0,0,0,41.77,39V24.19A5.46,5.46,0,0,0,38.24,19.09ZM10,12.08a2.53,2.53,0,0,1,2.39-2.64l22.51.07h0a2.53,2.53,0,0,1,2.39,2.64v6.59l-8,0a1.73,1.73,0,0,0,.24-.88v-3.5a1.83,1.83,0,0,0-1.82-1.82h-8a1.82,1.82,0,0,0-1.82,1.82v3.5a1.84,1.84,0,0,0,.21.85l-8,0Zm8.82,5.75v-3.5a.82.82,0,0,1,.82-.82h8a.82.82,0,0,1,.82.82v3.5a.83.83,0,0,1-.82.83h-8A.83.83,0,0,1,18.77,17.83ZM10.46,39a.52.52,0,0,1-.52.52H7.42A.52.52,0,0,1,6.9,39V35.06h3.56Zm30.31,0a.51.51,0,0,1-.51.52H37.73a.52.52,0,0,1-.52-.52V35.06h3.56Zm0-4.91H6.9V29.24H40.77Zm0-5.82H6.9V23.81A4.08,4.08,0,0,1,11,19.74H36.32a4.45,4.45,0,0,1,4.45,4.45Z"/><path d="M45.11,13.08A23.84,23.84,0,0,0,1.7,32.7a.5.5,0,0,0,.93-.38,22.84,22.84,0,1,1,41.89,1.21.5.5,0,0,0,.24.67.54.54,0,0,0,.21,0,.52.52,0,0,0,.46-.29,25,25,0,0,0,1.06-2.69A23.72,23.72,0,0,0,45.11,13.08Z"/><path d="M36.44,42.89a22.7,22.7,0,0,1-19.72,2.65A22.25,22.25,0,0,1,12,43.4a.5.5,0,0,0-.52.86,24,24,0,0,0,4.89,2.23A23.71,23.71,0,0,0,37,43.72a.5.5,0,0,0-.55-.83Z"/></g></g></svg>