<svg viewBox="0 0 47.69 46.99" xmlns="http://www.w3.org/2000/svg"><g fill="none" stroke="#000" stroke-linecap="round"><g transform="translate(-12.33 -12.66)"><path d="m47.77 16.25a23.35 23.35 0 0 0 -24.24.64" stroke-miterlimit="10"/><path d="m44.2 58.42a23.33 23.33 0 0 0 13.2-31.61" stroke-miterlimit="10"/><path d="m14.38 28.15c-.14.36-.26.72-.38 1.08a23.34 23.34 0 0 0 14.89 29.45" stroke-miterlimit="10"/><path d="m55.24 16.89c-10.41 8.77-19.07 0-19.07 0s-8.66 8.77-19.06 0a94.28 94.28 0 0 0 2.42 22.88s3.47 14.32 16.64 19.38c13.16-5.06 16.65-19.38 16.65-19.38a94.57 94.57 0 0 0 2.42-22.88z" stroke-linejoin="round"/></g><path d="m32.79 21.46h-5.56v-5.56h-6.77v5.56h-5.56v6.77h5.56v5.56h6.77v-5.56h5.56z" stroke-linejoin="round"/></g></svg>